<?xml version="1.0" encoding="UTF-8"?>
<svg version="1.1" xmlns="http://www.w3.org/2000/svg" width="92" height="99">
<path d="M0 0 C30.36 0 60.72 0 92 0 C92 32.67 92 65.34 92 99 C61.64 99 31.28 99 0 99 C0 66.33 0 33.66 0 0 Z " fill="#1B2421" transform="translate(0,0)"/>
<path d="M0 0 C30.36 0 60.72 0 92 0 C92 14.52 92 29.04 92 44 C91.01 44.495 91.01 44.495 90 45 C89.90203125 44.34773438 89.8040625 43.69546875 89.703125 43.0234375 C88.45063273 35.70283614 86.6055775 30.6533023 80.4375 26.125 C75.44082109 23.25912085 70.61192552 22.97890729 65 24 C59.94441723 26.06780931 55.82941892 29.2843018 53 34 C52.4144419 38.00131372 53.10961866 39.21923733 55 43 C51.04 43.99 47.08 44.98 43 46 C43 43.36 43 40.72 43 38 C39.37 38.33 35.74 38.66 32 39 C32.33 39.99 32.66 40.98 33 42 C29.30536161 44.46309226 25.28704359 44.82284906 21 44 C17.47620234 42.02970454 15.29931115 39.89793345 14 36 C13.4925527 32.19414525 13.13903857 28.55165811 15.046875 25.11328125 C16.8195649 22.9599844 18.49130789 21.25434606 21 20 C24.83936768 19.8578012 28.32016639 19.82245324 32 21 C32.144375 20.21625 32.28875 19.4325 32.4375 18.625 C33 16 33 16 34 14 C31.62374823 13.89116404 29.25256024 13.81233304 26.875 13.75 C26.20984375 13.71648438 25.5446875 13.68296875 24.859375 13.6484375 C19.70309977 13.54733406 16.96487043 14.78539617 13 18 C9.74703533 21.16024359 7.17600742 24.3288285 6.8671875 29.015625 C6.86976563 29.75296875 6.87234375 30.4903125 6.875 31.25 C6.875 32.04664063 6.875 32.84328125 6.875 33.6640625 C6.94172934 36.24163478 6.94172934 36.24163478 7.875 39.625 C8.01797811 43.48540888 7.60421271 43.95293299 5.1875 46.75 C4.37345703 47.57757813 4.37345703 47.57757813 3.54296875 48.421875 C1.7839399 50.12360951 1.7839399 50.12360951 0 53 C0 35.51 0 18.02 0 0 Z " fill="#1B2320" transform="translate(0,0)"/>
<path d="M0 0 C1.1653125 -0.00257812 2.330625 -0.00515625 3.53125 -0.0078125 C6.5 0.125 6.5 0.125 8.5 1.125 C7.84 3.435 7.18 5.745 6.5 8.125 C5.39591797 8.05539063 5.39591797 8.05539063 4.26953125 7.984375 C-1.97247842 7.67394404 -1.97247842 7.67394404 -7.625 10 C-10.80639481 13.60558078 -10.77506367 16.21041419 -10.72265625 20.8671875 C-10.42084306 23.92767911 -9.43538287 25.75953205 -7.5 28.125 C-4.50261059 30.12325961 -3.86652492 30.40050398 -0.5 30.375 C0.180625 30.38015625 0.86125 30.3853125 1.5625 30.390625 C3.82416007 30.22417603 3.82416007 30.22417603 6.5 28.125 C6.5 27.465 6.5 26.805 6.5 26.125 C10.13 25.795 13.76 25.465 17.5 25.125 C17.995 28.59 17.995 28.59 18.5 32.125 C21.47 31.465 24.44 30.805 27.5 30.125 C27.5 29.135 27.5 28.145 27.5 27.125 C27.17 26.795 26.84 26.465 26.5 26.125 C26.16546861 23.13449211 26.21935714 21.57834615 27.8203125 18.9921875 C33.02543401 13.24627414 36.90189632 10.06428946 44.875 9.625 C50.55970198 9.78742006 54.22870916 11.42927318 58.5 15.125 C63.58221981 20.60844768 65.01519589 24.90449806 64.88671875 32.296875 C64.13711028 37.77886014 61.29679863 41.57101199 57.1875 45.125 C56.630625 45.455 56.07375 45.785 55.5 46.125 C54.18 44.475 52.86 42.825 51.5 41.125 C52.58799596 38.86531609 53.70474771 36.82575335 55.125 34.75 C57.22036921 30.74974968 56.85555524 27.68944306 55.875 23.375 C54.63802056 20.90416711 54.63802056 20.90416711 51.875 19.8125 C46.7179059 18.76198083 42.48487961 18.08941064 37.625 20.625 C34.73623047 24.02355238 34.30009493 26.76084584 33.5 31.125 C34.49 31.455 35.48 31.785 36.5 32.125 C34.025 37.075 34.025 37.075 31.5 42.125 C29.52 41.465 27.54 40.805 25.5 40.125 C25.5 39.465 25.5 38.805 25.5 38.125 C24.84 38.125 24.18 38.125 23.5 38.125 C22.84 42.085 22.18 46.045 21.5 50.125 C22.5725 50.00125 23.645 49.8775 24.75 49.75 C28.5 50.125 28.5 50.125 30.9375 52.3125 C33.74447992 57.38200253 33.0692468 63.5534969 32.5 69.125 C30.6202806 75.20644512 25.94003589 79.08051619 20.57421875 82.26953125 C16.01064001 84.15168519 10.80792776 84.05697083 6.24609375 82.21484375 C1.73377509 79.55197638 -1.61750551 76.49241589 -4.5 72.125 C-5.3125 68.25 -5.3125 68.25 -5.5 65.125 C-2.035 64.63 -2.035 64.63 1.5 64.125 C1.75394531 64.67929688 2.00789063 65.23359375 2.26953125 65.8046875 C2.78580078 66.89136719 2.78580078 66.89136719 3.3125 68 C3.64894531 68.71929687 3.98539063 69.43859375 4.33203125 70.1796875 C5.49467097 72.43042806 5.49467097 72.43042806 8.5 74.125 C13.19512727 74.72288137 18.47779075 74.80647283 22.5 72.125 C24.59632645 67.83252202 25.0903928 63.84814243 24.5 59.125 C22.7087219 56.15507422 20.6499322 53.6999661 17.5 52.125 C17.5 52.785 17.5 53.445 17.5 54.125 C13.29236776 52.6222742 11.6972242 49.89167005 9.5 46.125 C9.5 45.465 9.5 44.805 9.5 44.125 C10.82 44.125 12.14 44.125 13.5 44.125 C13.5 43.465 13.5 42.805 13.5 42.125 C14.49 42.125 15.48 42.125 16.5 42.125 C15.38200014 40.78579162 14.25538103 39.45377444 13.125 38.125 C12.49851562 37.3825 11.87203125 36.64 11.2265625 35.875 C10.65679687 35.2975 10.08703125 34.72 9.5 34.125 C8.84 34.125 8.18 34.125 7.5 34.125 C6.51 36.6 6.51 36.6 5.5 39.125 C-1.34543443 39.62999106 -6.9103574 39.4339322 -12.5 35.125 C-17.9759472 29.30307792 -19.90352886 24.36526071 -19.7734375 16.4296875 C-19.01510467 10.03802511 -14.86957384 6.19535069 -10.0859375 2.2890625 C-6.70382563 -0.19337429 -4.1504287 -0.00918236 0 0 Z " fill="#F2C94C" transform="translate(25.5,12.875)"/>
<path d="M0 0 C3.59884553 1.29015217 5.46954201 2.34576848 7.875 5.3125 C9.23833511 8.56935609 9.50047119 10.49670169 9 14 C7.70427617 16.02456848 6.3726682 18.02678947 5 20 C5 24.21566263 5.12763939 24.51138066 7.5 27.5625 C10.75971908 32.56384042 11.05804178 37.18500237 10 43 C7.57587138 48.92674711 3.65559639 52.80822468 -1.8046875 56.08203125 C-4.5025278 57.21013173 -6.64421521 57.30058863 -9.5625 57.3125 C-10.51253906 57.32925781 -11.46257813 57.34601563 -12.44140625 57.36328125 C-15.35802152 56.94916641 -16.2147863 56.27810098 -18 54 C-17.67 53.01 -17.34 52.02 -17 51 C-16.85445167 48.8783532 -16.77919588 46.75143294 -16.75 44.625 C-16.72421875 43.50351563 -16.6984375 42.38203125 -16.671875 41.2265625 C-17.0362697 37.64334794 -17.75373549 35.79887628 -20 33 C-23.59919423 32.10407917 -23.59919423 32.10407917 -27 32 C-26.85831863 30.56208484 -26.71148957 29.1246763 -26.5625 27.6875 C-26.48128906 26.88699219 -26.40007813 26.08648437 -26.31640625 25.26171875 C-26 23 -26 23 -25 20 C-24.34 20 -23.68 20 -23 20 C-23 20.66 -23 21.32 -23 22 C-22.071875 22.2165625 -22.071875 22.2165625 -21.125 22.4375 C-19 23 -19 23 -17 24 C-16.71125 23.0925 -16.4225 22.185 -16.125 21.25 C-15.23468224 18.67797092 -14.28505587 16.38653234 -13 14 C-13.66 13.67 -14.32 13.34 -15 13 C-15.34751969 10.08083462 -15.53280018 7.86804524 -13.95703125 5.30078125 C-9.69382517 0.13742608 -6.54976224 -0.67083226 0 0 Z " fill="#2C6885" transform="translate(74,31)"/>
<path d="M0 0 C4.99076779 2.482087 8.06558511 6.48266458 10.25 11.5625 C10.40234375 14.34765625 10.40234375 14.34765625 10.25 16.5625 C9.66992188 16.72105469 9.08984375 16.87960938 8.4921875 17.04296875 C1.6861199 19.07580412 -2.71136102 21.50454153 -6.75 27.5625 C-7.15869661 31.54729196 -6.63325912 32.79598176 -4.75 36.5625 C-8.71 37.5525 -12.67 38.5425 -16.75 39.5625 C-16.75 36.9225 -16.75 34.2825 -16.75 31.5625 C-22.195 32.0575 -22.195 32.0575 -27.75 32.5625 C-27.42 33.5525 -27.09 34.5425 -26.75 35.5625 C-30.44463839 38.02559226 -34.46295641 38.38534906 -38.75 37.5625 C-42.27379766 35.59220454 -44.45068885 33.46043345 -45.75 29.5625 C-46.2574473 25.75664525 -46.61096143 22.11415811 -44.703125 18.67578125 C-42.9304351 16.5224844 -41.25869211 14.81684606 -38.75 13.5625 C-34.91063232 13.4203012 -31.42983361 13.38495324 -27.75 14.5625 C-27.6675 13.86125 -27.585 13.16 -27.5 12.4375 C-26.14354062 7.23773904 -23.44925744 3.77999926 -19.125 0.6875 C-12.90512896 -2.87825167 -6.59820009 -2.39531297 0 0 Z " fill="#982C4F" transform="translate(59.75,6.4375)"/>
<path d="M0 0 C0.65355469 0.59748047 0.65355469 0.59748047 1.3203125 1.20703125 C8.2497435 7.37152506 13.77481199 9.47128369 23 10 C23.33 8.35 23.66 6.7 24 5 C28 5 28 5 29.703125 6.2421875 C30.21359375 6.78101563 30.7240625 7.31984375 31.25 7.875 C32.03117187 8.67550781 32.03117187 8.67550781 32.828125 9.4921875 C34 11 34 11 34 13 C33.01 13 32.02 13 31 13 C31 13.66 31 14.32 31 15 C29.68 15 28.36 15 27 15 C27.95262034 16.48285242 28.91228405 17.96118201 29.875 19.4375 C30.40867188 20.26121094 30.94234375 21.08492187 31.4921875 21.93359375 C32.83834306 24.11038871 32.83834306 24.11038871 35 25 C35 24.34 35 23.68 35 23 C38.82440382 24.50244436 40.83472958 26.52010111 43 30 C43.66040699 35.18891206 42.87649011 38.63567018 40 43 C36.35461787 46.21651364 32.84657589 46.5194935 28.15234375 46.35546875 C24.87493209 45.81419024 23.21179019 44.41286203 21 42 C19.29194726 39.31591712 19 38.23830467 19 35 C16.6568787 35.25561323 14.32156597 35.59270772 12 36 C11.67 36.66 11.34 37.32 11 38 C11 37.01 11 36.02 11 35 C10.01 35.12375 9.02 35.2475 8 35.375 C3.67053418 35.34865437 1.0754803 33.60721769 -2.19921875 30.8984375 C-6.36859647 26.5029547 -8.17289621 21.37531016 -8.5 15.375 C-8.21610668 9.56532601 -5.66913685 5.80823158 -1.75 1.5625 C-1.1725 1.046875 -0.595 0.53125 0 0 Z " fill="#3C8647" transform="translate(8,42)"/>
<path d="M0 0 C5.36090101 3.1764591 9.19811222 7.28281938 11.65234375 13.05078125 C12.64161548 19.75700224 12.01322943 24.92083192 8.03125 30.45703125 C6.41814735 32.32146718 4.77694354 33.79175915 2.65234375 35.05078125 C1.33234375 33.40078125 0.01234375 31.75078125 -1.34765625 30.05078125 C-0.25966029 27.79109734 0.85709146 25.7515346 2.27734375 23.67578125 C4.37271296 19.67553093 4.00789899 16.61522431 3.02734375 12.30078125 C1.79036431 9.82994836 1.79036431 9.82994836 -0.97265625 8.73828125 C-6.12975035 7.68776208 -10.36277664 7.01519189 -15.22265625 9.55078125 C-18.11142578 12.94933363 -18.54756132 15.68662709 -19.34765625 20.05078125 C-18.35765625 20.38078125 -17.36765625 20.71078125 -16.34765625 21.05078125 C-17.99765625 24.35078125 -19.64765625 27.65078125 -21.34765625 31.05078125 C-25.27366588 29.08777644 -27.44415184 27.27689726 -30.34765625 24.05078125 C-30.34765625 23.39078125 -30.34765625 22.73078125 -30.34765625 22.05078125 C-29.35765625 22.05078125 -28.36765625 22.05078125 -27.34765625 22.05078125 C-27.34765625 21.39078125 -27.34765625 20.73078125 -27.34765625 20.05078125 C-26.35765625 19.39078125 -25.36765625 18.73078125 -24.34765625 18.05078125 C-25.00765625 17.06078125 -25.66765625 16.07078125 -26.34765625 15.05078125 C-26.74868442 12.00883586 -26.6542075 10.54597942 -25.02734375 7.91796875 C-18.19125656 0.37163874 -10.29983632 -4.16449289 0 0 Z " fill="#A57343" transform="translate(78.34765625,23.94921875)"/>
<path d="M0 0 C1.1653125 -0.00257812 2.330625 -0.00515625 3.53125 -0.0078125 C6.5 0.125 6.5 0.125 8.5 1.125 C7.84 3.435 7.18 5.745 6.5 8.125 C5.39591797 8.05539063 5.39591797 8.05539063 4.26953125 7.984375 C-1.97247842 7.67394404 -1.97247842 7.67394404 -7.625 10 C-10.80639481 13.60558078 -10.77506367 16.21041419 -10.72265625 20.8671875 C-10.42084306 23.92767911 -9.43538287 25.75953205 -7.5 28.125 C-4.50261059 30.12325961 -3.86652492 30.40050398 -0.5 30.375 C0.180625 30.38015625 0.86125 30.3853125 1.5625 30.390625 C3.82416007 30.22417603 3.82416007 30.22417603 6.5 28.125 C6.5 27.465 6.5 26.805 6.5 26.125 C10.13 25.795 13.76 25.465 17.5 25.125 C17.995 28.59 17.995 28.59 18.5 32.125 C17.84 32.125 17.18 32.125 16.5 32.125 C16.17 33.445 15.84 34.765 15.5 36.125 C12.86 35.465 10.22 34.805 7.5 34.125 C6.51 36.6 6.51 36.6 5.5 39.125 C-1.34543443 39.62999106 -6.9103574 39.4339322 -12.5 35.125 C-17.9759472 29.30307792 -19.90352886 24.36526071 -19.7734375 16.4296875 C-19.01510467 10.03802511 -14.86957384 6.19535069 -10.0859375 2.2890625 C-6.70382563 -0.19337429 -4.1504287 -0.00918236 0 0 Z " fill="#E76B40" transform="translate(25.5,12.875)"/>
<path d="M0 0 C2.23903048 0.39982687 4.11711121 1.05353655 6.1875 2 C10.06167853 3.3774857 13.91999427 3.66222175 18 4 C17.67 5.32 17.34 6.64 17 8 C17.99 8 18.98 8 20 8 C19.63126118 14.14564694 18.22746623 16.77253377 14 21 C10.26669892 22.24443369 6.8711182 22.65860234 3 22 C-0.68237761 19.98557024 -3.76553367 17.0737389 -5 13 C-5.6879834 7.72546059 -4.18688757 5.15261108 -1 1 C-0.67 0.67 -0.34 0.34 0 0 Z " fill="#1B2621" transform="translate(12,48)"/>
<path d="M0 0 C3.46612913 2.64557611 5.5780052 5.48785196 6.75 9.6875 C5.60759825 13.2099054 3.08682093 14.10041789 0 16 C-2.25293726 18.56584522 -4.1060541 21.15908115 -6 24 C-6.66 22.68 -7.32 21.36 -8 20 C-8.66 20 -9.32 20 -10 20 C-10 20.66 -10 21.32 -10 22 C-12.48722141 21.65693498 -13.79568171 21.18161626 -15.6875 19.5 C-17.64947411 15.76290646 -18.24129826 12.21175149 -18 8 C-14.21280978 0.13429723 -8.3125226 -2.88750785 0 0 Z " fill="#1E2321" transform="translate(57,13)"/>
<path d="M0 0 C1.65 0.99 3.3 1.98 5 3 C5 2.34 5 1.68 5 1 C8.82440382 2.50244436 10.83472958 4.52010111 13 8 C13.66040699 13.18891206 12.87649011 16.63567018 10 21 C6.35461787 24.21651364 2.84657589 24.5194935 -1.84765625 24.35546875 C-5.12506791 23.81419024 -6.78820981 22.41286203 -9 20 C-11.00796384 16.94024557 -11 15.85514114 -11 12 C-9.35546875 10.5078125 -9.35546875 10.5078125 -7.1875 9.125 C-3.46162037 6.53996493 -1.64685019 4.32298176 0 0 Z " fill="#1E2621" transform="translate(38,64)"/>
<path d="M0 0 C3.12578143 1.6720747 5.39281175 3.7856235 7 7 C7.51816286 11.79937735 7.71207367 15.73409126 5.3125 20 C2.24473793 22.65319963 0.06277994 24.1075565 -4.09765625 23.890625 C-6.07321973 23.65369675 -8.03825824 23.3324986 -10 23 C-10.14695312 21.93072266 -10.14695312 21.93072266 -10.296875 20.83984375 C-11.25833561 14.68152277 -12.53824107 10.19263839 -16 5 C-14.35 4.67 -12.7 4.34 -11 4 C-11.33 3.01 -11.66 2.02 -12 1 C-8.27533151 -0.86233425 -4.05504687 -0.57130829 0 0 Z " fill="#1A2523" transform="translate(69,57)"/>
<path d="M0 0 C3.59884553 1.29015217 5.46954201 2.34576848 7.875 5.3125 C9.23833511 8.56935609 9.50047119 10.49670169 9 14 C6.96006092 17.6578218 5.49580738 19.66946174 2 22 C0.33605109 21.30114146 -1.32469867 20.59085782 -2.94921875 19.8046875 C-6.50200781 18.41064074 -10.21874144 18.24865419 -14 18 C-13.67 16.68 -13.34 15.36 -13 14 C-13.66 13.67 -14.32 13.34 -15 13 C-15.34751969 10.08083462 -15.53280018 7.86804524 -13.95703125 5.30078125 C-9.69382517 0.13742608 -6.54976224 -0.67083226 0 0 Z " fill="#1C2421" transform="translate(74,31)"/>
<path d="M0 0 C3.78783971 2.52522647 3.90520623 4.12980312 5.125 8.4375 C5.45757812 9.59121094 5.79015625 10.74492187 6.1328125 11.93359375 C6.41898438 12.94550781 6.70515625 13.95742188 7 15 C7.33 15.99 7.66 16.98 8 18 C6.35 18 4.7 18 3 18 C3.66 19.32 4.32 20.64 5 22 C1.30536161 24.46309226 -2.71295641 24.82284906 -7 24 C-10.52379766 22.02970454 -12.70068885 19.89793345 -14 16 C-14.5074473 12.19414525 -14.86096143 8.55165811 -12.953125 5.11328125 C-8.86799464 0.15104937 -6.28528099 -0.33080426 0 0 Z " fill="#1E2420" transform="translate(28,20)"/>
<path d="M0 0 C0.33 0.99 0.66 1.98 1 3 C3.64 2.34 6.28 1.68 9 1 C9 1.66 9 2.32 9 3 C8.01 3 7.02 3 6 3 C6.825 3.78375 7.65 4.5675 8.5 5.375 C11 8 11 8 11 10 C10.34 10 9.68 10 9 10 C9 9.34 9 8.68 9 8 C8.34 8 7.68 8 7 8 C6.67 9.98 6.34 11.96 6 14 C5.67 13.34 5.34 12.68 5 12 C2.36 12.66 -0.28 13.32 -3 14 C-3 13.34 -3 12.68 -3 12 C-2.01 12 -1.02 12 0 12 C-1.65 9.69 -3.3 7.38 -5 5 C-3.68 5.33 -2.36 5.66 -1 6 C-0.67 4.02 -0.34 2.04 0 0 Z " fill="#F5E409" transform="translate(42,43)"/>
</svg>
